<svg data-name="Layer 1" xmlns="http://www.w3.org/2000/svg" viewBox="0 0 100 40"><g fill="#404242"><path d="M19.4 11.8v14.9l-5.8 4.6V8.7zm-8.5.2l-4.7-1.4v17.8l4.7-2zM0 25.8l3.6-.9V13.6L0 13zM41 11.8v14.9h-2.5V15.8L33.4 24l-5.1-8.1v10.8h-2.5V11.8h2.7l5 8.1 4.9-8.1zm10.6 14.9V20c0-2.5-1.6-4-4.5-4a5.4 5.4 0 0 0-3.7 1.3v2.4a5.3 5.3 0 0 1 3.5-1.5c1.4 0 2.3.6 2.3 1.7v.2l-2.7.4c-2.5.4-3.7 1.5-3.7 3.5a3 3 0 0 0 3.2 3 3.7 3.7 0 0 0 3.2-1.7v1.4zm-5-1.8c-.8 0-1.4-.4-1.4-1.1s.5-1.3 1.7-1.5l2.3-.3v.5a2.4 2.4 0 0 1-2.6 2.4m13.1-8.8h-.4a3.2 3.2 0 0 0-3.1 2v-1.8h-2.5v10.4h2.5v-4.6c0-2.1 1.1-3.5 2.9-3.5.2-.1.4 0 .6 0zm1.6-4.3v14.9h2.4v-4.1l.6-.5 3.7 4.6h3l-4.9-5.9 4.6-4.5h-3l-4 3.9v-8.4zm19 11.6a6.2 6.2 0 0 1-3.9 1.4 3.1 3.1 0 0 1-3.3-2.5h7.7c0-.3.1-.6.1-.9 0-3.1-2-5.4-5-5.4a5.2 5.2 0 0 0-5.2 5.5c0 3.1 2.1 5.4 5.6 5.4a6.4 6.4 0 0 0 4-1.1zm-7.2-3a2.8 2.8 0 0 1 2.7-2.4 2.6 2.6 0 0 1 2.7 2.4zM87 24.7c-1.1 0-1.6-.5-1.6-1.7v-4.6h2.8v-2.1h-2.8v-3.4l-4.3 5.5H83v5.1c0 2.2 1.2 3.4 3.3 3.4a4.4 4.4 0 0 0 1.9-.3v-2.2a2.7 2.7 0 0 1-1.2.3m13-3.2a5.6 5.6 0 1 0-5.5 5.4 5.4 5.4 0 0 0 5.5-5.4m-8.6 0a3.1 3.1 0 0 1 3.1-3.2 3.2 3.2 0 0 1 0 6.4 3.1 3.1 0 0 1-3.1-3.2"/></g></svg>